<mxfile host="65bd71144e" modified="2020-11-21T20:17:05.875Z" agent="5.0 (Windows NT 10.0; Win64; x64) AppleWebKit/537.36 (KHTML, like Gecko) Code/1.51.1 Chrome/83.0.4103.122 Electron/9.3.3 Safari/537.36" etag="Cq_rwpNMCwSNhJ9OWZU1" version="13.6.5">
    <diagram id="752CbG-xo9vR5K9EGaEM" name="Page-1">
        <mxGraphModel dx="383" dy="1150" grid="0" gridSize="10" guides="1" tooltips="1" connect="1" arrows="1" fold="1" page="1" pageScale="1" pageWidth="850" pageHeight="1100" math="0" shadow="0">
            <root>
                <mxCell id="0"/>
                <mxCell id="1" parent="0"/>
                <mxCell id="3" value="" style="rounded=0;whiteSpace=wrap;html=1;fontColor=#333333;strokeColor=none;fillColor=#474747;" parent="1" vertex="1">
                    <mxGeometry x="200" y="40" width="120" height="120" as="geometry"/>
                </mxCell>
                <mxCell id="8" value="" style="rounded=0;whiteSpace=wrap;html=1;strokeColor=none;fillColor=#B80300;" parent="1" vertex="1">
                    <mxGeometry x="440" y="40" width="120" height="120" as="geometry"/>
                </mxCell>
                <mxCell id="10" value="" style="rounded=0;whiteSpace=wrap;html=1;strokeColor=none;fillColor=#7CC6FE;" parent="1" vertex="1">
                    <mxGeometry x="320" y="40" width="120" height="120" as="geometry"/>
                </mxCell>
                <mxCell id="11" value="Neutral Background" style="text;html=1;align=center;verticalAlign=middle;resizable=0;points=[];autosize=1;" parent="1" vertex="1">
                    <mxGeometry x="200" y="10" width="120" height="20" as="geometry"/>
                </mxCell>
                <mxCell id="12" value="Ok/Good" style="text;html=1;align=center;verticalAlign=middle;resizable=0;points=[];autosize=1;" parent="1" vertex="1">
                    <mxGeometry x="350" y="10" width="60" height="20" as="geometry"/>
                </mxCell>
                <mxCell id="13" value="Wrong" style="text;html=1;align=center;verticalAlign=middle;resizable=0;points=[];autosize=1;" parent="1" vertex="1">
                    <mxGeometry x="475" y="10" width="50" height="20" as="geometry"/>
                </mxCell>
                <mxCell id="20" value="" style="rounded=0;whiteSpace=wrap;html=1;strokeColor=none;fillColor=#F2A541;" parent="1" vertex="1">
                    <mxGeometry x="320" y="200" width="120" height="120" as="geometry"/>
                </mxCell>
                <mxCell id="21" value="" style="rounded=0;whiteSpace=wrap;html=1;strokeColor=none;fillColor=#7FB285;" parent="1" vertex="1">
                    <mxGeometry x="440" y="200" width="120" height="120" as="geometry"/>
                </mxCell>
                <mxCell id="22" value="&#10;&#10;&lt;span style=&quot;color: rgb(0, 0, 0); font-family: helvetica; font-size: 12px; font-style: normal; font-weight: 400; letter-spacing: normal; text-align: center; text-indent: 0px; text-transform: none; word-spacing: 0px; background-color: rgb(248, 249, 250); display: inline; float: none;&quot;&gt;Diff #1&lt;/span&gt;&#10;&#10;" style="text;html=1;align=center;verticalAlign=middle;resizable=0;points=[];autosize=1;" parent="1" vertex="1">
                    <mxGeometry x="355" y="320" width="50" height="60" as="geometry"/>
                </mxCell>
                <mxCell id="23" value="&lt;br&gt;&lt;br&gt;&lt;span style=&quot;color: rgb(0 , 0 , 0) ; font-family: &amp;#34;helvetica&amp;#34; ; font-size: 12px ; font-style: normal ; font-weight: 400 ; letter-spacing: normal ; text-align: center ; text-indent: 0px ; text-transform: none ; word-spacing: 0px ; background-color: rgb(248 , 249 , 250) ; display: inline ; float: none&quot;&gt;Diff #2&lt;/span&gt;&lt;br&gt;" style="text;html=1;align=center;verticalAlign=middle;resizable=0;points=[];autosize=1;" parent="1" vertex="1">
                    <mxGeometry x="475" y="310" width="50" height="50" as="geometry"/>
                </mxCell>
            </root>
        </mxGraphModel>
    </diagram>
</mxfile>